<svg width="515" height="166" viewBox="0 0 515 166" fill="none" xmlns="http://www.w3.org/2000/svg">
<path d="M43.5142 124.263V134H38.0605V96.9702H47.3242C49.9307 96.9702 52.1636 97.1943 54.0229 97.6426C55.8823 98.0742 57.4429 98.6553 58.7046 99.3857C59.9663 100.116 60.979 100.963 61.7427 101.926C62.5063 102.872 63.0874 103.86 63.4858 104.889C63.8843 105.902 64.1416 106.923 64.2578 107.952C64.3906 108.965 64.457 109.911 64.457 110.791C64.457 111.654 64.3823 112.592 64.2329 113.605C64.1001 114.601 63.8179 115.597 63.3862 116.593C62.9712 117.589 62.3735 118.552 61.5933 119.482C60.8296 120.395 59.8086 121.208 58.5303 121.922C57.2686 122.636 55.7163 123.209 53.8735 123.641C52.0474 124.056 49.8643 124.263 47.3242 124.263H43.5142ZM43.5142 99.4106V121.823H46.5771C48.4199 121.823 50.0884 121.615 51.5825 121.2C53.0767 120.785 54.3467 120.121 55.3926 119.208C56.4551 118.295 57.2686 117.133 57.833 115.722C58.3975 114.294 58.6797 112.567 58.6797 110.542C58.6797 108.998 58.5303 107.653 58.2314 106.508C57.9492 105.346 57.5425 104.358 57.0112 103.544C56.48 102.714 55.8408 102.034 55.0938 101.502C54.3633 100.971 53.5498 100.548 52.6533 100.232C51.7734 99.917 50.8271 99.7012 49.8145 99.585C48.8018 99.4688 47.7559 99.4106 46.6768 99.4106H43.5142ZM97.4277 134H91.6753L89.6333 129.194H69.3877L67.3955 134H64.3823L77.9541 101.727L75.9619 96.9702H81.7891L97.4277 134ZM70.4087 126.753H88.6123L79.4233 105.238L70.4087 126.753ZM104.898 115.024C104.898 117.531 105.305 119.806 106.119 121.848C106.949 123.873 108.127 125.608 109.655 127.052C111.182 128.497 113.042 129.609 115.233 130.389C117.441 131.169 119.915 131.56 122.654 131.56H128.107V110.019H133.561V134H120.413C118.437 134 116.536 133.826 114.71 133.477C112.884 133.128 111.174 132.605 109.58 131.908C107.986 131.211 106.542 130.339 105.247 129.293C103.952 128.248 102.84 127.019 101.91 125.608C100.98 124.197 100.258 122.611 99.7437 120.852C99.2456 119.092 98.9966 117.149 98.9966 115.024C98.9966 113.248 99.229 111.546 99.6938 109.919C100.175 108.292 100.839 106.782 101.686 105.387C102.549 103.993 103.579 102.731 104.774 101.602C105.986 100.473 107.322 99.5103 108.783 98.7134C110.261 97.8999 111.846 97.2773 113.54 96.8457C115.233 96.4141 117.001 96.1982 118.844 96.1982C121.716 96.1982 124.389 96.6714 126.862 97.6177C129.336 98.564 131.527 99.8589 133.437 101.502L132.042 103.345C131.278 102.698 130.432 102.092 129.502 101.527C128.589 100.963 127.609 100.473 126.563 100.058C125.534 99.6431 124.463 99.3193 123.351 99.0869C122.239 98.8545 121.118 98.7383 119.989 98.7383C117.648 98.7549 115.548 99.1782 113.689 100.008C111.83 100.822 110.244 101.959 108.933 103.42C107.638 104.864 106.642 106.574 105.944 108.55C105.247 110.525 104.898 112.684 104.898 115.024ZM164.166 96.9702V99.4106H146.958V110.642H163.643V113.082H146.958V131.56H164.166V134H141.505V96.9702H164.166ZM211.182 134H206.998L186.479 105.238V134H183.938V101.677L180.626 96.9702H187.3L208.617 126.903V96.9702H211.182V134ZM237.578 134.722C235.752 134.722 233.992 134.49 232.299 134.025C230.622 133.56 229.045 132.913 227.567 132.083C226.106 131.236 224.77 130.223 223.558 129.044C222.363 127.866 221.333 126.562 220.47 125.135C219.607 123.69 218.935 122.146 218.453 120.503C217.988 118.843 217.756 117.116 217.756 115.323C217.756 113.563 217.988 111.862 218.453 110.218C218.935 108.575 219.607 107.039 220.47 105.611C221.333 104.184 222.363 102.88 223.558 101.702C224.77 100.523 226.106 99.5186 227.567 98.6885C229.045 97.8584 230.622 97.2109 232.299 96.7461C233.992 96.2812 235.752 96.0488 237.578 96.0488C239.388 96.0488 241.131 96.2812 242.808 96.7461C244.484 97.1943 246.053 97.8418 247.514 98.6885C248.975 99.5186 250.303 100.523 251.499 101.702C252.71 102.88 253.74 104.184 254.586 105.611C255.45 107.039 256.114 108.575 256.579 110.218C257.06 111.862 257.301 113.563 257.301 115.323C257.301 117.116 257.06 118.843 256.579 120.503C256.114 122.146 255.45 123.69 254.586 125.135C253.74 126.562 252.71 127.866 251.499 129.044C250.303 130.223 248.975 131.236 247.514 132.083C246.053 132.913 244.484 133.56 242.808 134.025C241.131 134.49 239.388 134.722 237.578 134.722ZM237.578 132.307C239.836 132.307 241.828 131.867 243.555 130.987C245.298 130.107 246.759 128.903 247.938 127.376C249.116 125.849 250.004 124.056 250.602 121.997C251.216 119.922 251.523 117.697 251.523 115.323C251.523 112.966 251.225 110.758 250.627 108.699C250.029 106.641 249.141 104.856 247.962 103.345C246.8 101.834 245.348 100.647 243.604 99.7842C241.861 98.9043 239.853 98.4644 237.578 98.4644C235.271 98.4644 233.245 98.9043 231.502 99.7842C229.775 100.647 228.323 101.834 227.144 103.345C225.982 104.856 225.102 106.641 224.504 108.699C223.923 110.758 223.633 112.966 223.633 115.323C223.633 117.697 223.932 119.922 224.529 121.997C225.127 124.056 226.007 125.849 227.169 127.376C228.348 128.903 229.809 130.107 231.552 130.987C233.295 131.867 235.304 132.307 237.578 132.307ZM282.079 96.9702V99.4106H273.114V134H267.66V99.4106H258.621V96.9702H282.079ZM322.52 96.9702V99.4106H305.337V110.642H321.997V113.082H305.337V134H299.884V96.9702H322.52ZM346.65 134.722C344.824 134.722 343.064 134.49 341.371 134.025C339.694 133.56 338.117 132.913 336.64 132.083C335.179 131.236 333.842 130.223 332.63 129.044C331.435 127.866 330.406 126.562 329.542 125.135C328.679 123.69 328.007 122.146 327.525 120.503C327.061 118.843 326.828 117.116 326.828 115.323C326.828 113.563 327.061 111.862 327.525 110.218C328.007 108.575 328.679 107.039 329.542 105.611C330.406 104.184 331.435 102.88 332.63 101.702C333.842 100.523 335.179 99.5186 336.64 98.6885C338.117 97.8584 339.694 97.2109 341.371 96.7461C343.064 96.2812 344.824 96.0488 346.65 96.0488C348.46 96.0488 350.203 96.2812 351.88 96.7461C353.557 97.1943 355.125 97.8418 356.586 98.6885C358.047 99.5186 359.375 100.523 360.571 101.702C361.783 102.88 362.812 104.184 363.659 105.611C364.522 107.039 365.186 108.575 365.651 110.218C366.132 111.862 366.373 113.563 366.373 115.323C366.373 117.116 366.132 118.843 365.651 120.503C365.186 122.146 364.522 123.69 363.659 125.135C362.812 126.562 361.783 127.866 360.571 129.044C359.375 130.223 358.047 131.236 356.586 132.083C355.125 132.913 353.557 133.56 351.88 134.025C350.203 134.49 348.46 134.722 346.65 134.722ZM346.65 132.307C348.908 132.307 350.9 131.867 352.627 130.987C354.37 130.107 355.831 128.903 357.01 127.376C358.188 125.849 359.077 124.056 359.674 121.997C360.289 119.922 360.596 117.697 360.596 115.323C360.596 112.966 360.297 110.758 359.699 108.699C359.102 106.641 358.213 104.856 357.035 103.345C355.873 101.834 354.42 100.647 352.677 99.7842C350.934 98.9043 348.925 98.4644 346.65 98.4644C344.343 98.4644 342.317 98.9043 340.574 99.7842C338.848 100.647 337.395 101.834 336.216 103.345C335.054 104.856 334.174 106.641 333.577 108.699C332.996 110.758 332.705 112.966 332.705 115.323C332.705 117.697 333.004 119.922 333.602 121.997C334.199 124.056 335.079 125.849 336.241 127.376C337.42 128.903 338.881 130.107 340.624 130.987C342.367 131.867 344.376 132.307 346.65 132.307ZM395.434 96.9702H400.888V134H395.434V131.086L389.358 133.128C388.528 133.411 387.689 133.651 386.843 133.851C385.996 134.05 385.174 134.216 384.377 134.349C383.581 134.481 382.825 134.573 382.111 134.623C381.397 134.689 380.767 134.722 380.219 134.722C379.04 134.722 378.036 134.589 377.206 134.324C376.375 134.075 375.687 133.751 375.139 133.353C374.591 132.938 374.159 132.481 373.844 131.983C373.528 131.485 373.288 131.003 373.122 130.539C372.972 130.074 372.873 129.65 372.823 129.269C372.79 128.87 372.773 128.58 372.773 128.397V96.9702H378.251V126.255C378.251 126.571 378.285 127.019 378.351 127.6C378.417 128.165 378.608 128.729 378.924 129.293C379.239 129.841 379.729 130.323 380.393 130.738C381.057 131.153 381.987 131.36 383.182 131.36C384.162 131.36 385.116 131.311 386.046 131.211C386.976 131.111 387.922 130.962 388.885 130.763C389.864 130.563 390.885 130.314 391.948 130.016C393.01 129.7 394.172 129.327 395.434 128.895V96.9702ZM437.843 134H433.659L413.14 105.238V134H410.6V101.677L407.288 96.9702H413.961L435.278 126.903V96.9702H437.843V134ZM473.553 115.547C473.553 113.29 473.295 111.322 472.781 109.646C472.266 107.969 471.569 106.533 470.689 105.337C469.809 104.142 468.78 103.163 467.601 102.399C466.422 101.619 465.177 101.013 463.866 100.581C462.554 100.133 461.201 99.8257 459.807 99.6597C458.429 99.4937 457.084 99.4106 455.772 99.4106H452.66V131.56H455.772C457.084 131.56 458.429 131.477 459.807 131.311C461.201 131.145 462.554 130.846 463.866 130.414C465.177 129.966 466.422 129.36 467.601 128.596C468.78 127.833 469.809 126.861 470.689 125.683C471.569 124.487 472.266 123.06 472.781 121.399C473.295 119.739 473.553 117.789 473.553 115.547ZM479.33 115.448C479.33 118.038 478.865 120.461 477.936 122.719C477.022 124.96 475.661 126.919 473.852 128.596C472.042 130.273 469.792 131.593 467.103 132.556C464.43 133.519 461.334 134 457.814 134H447.206V96.9702H457.814C461.334 96.9702 464.43 97.4517 467.103 98.4146C469.792 99.3774 472.042 100.697 473.852 102.374C475.661 104.034 477.022 105.993 477.936 108.251C478.865 110.492 479.33 112.891 479.33 115.448Z" fill="#AB8A62"/>
<path d="M227.156 48.167H220.331V63H212.869V48.167H186.297V42.07C190.968 34.972 195.184 28.056 198.946 21.322C202.768 14.588 205.922 7.854 208.41 1.12H216.782C214.234 7.73266 211.14 14.315 207.5 20.867C203.92 27.419 199.795 34.1833 195.124 41.16H212.869V29.876H220.331V41.16H227.156V48.167ZM278.463 25.235V38.794C278.463 47.0447 276.612 53.2933 272.912 57.54C269.211 61.7867 264.054 63.91 257.442 63.91C250.829 63.91 245.672 61.7867 241.972 57.54C238.332 53.2933 236.512 47.0447 236.512 38.794V25.235C236.512 17.045 238.362 10.8267 242.063 6.58C245.763 2.33333 250.89 0.209995 257.442 0.209995C264.054 0.209995 269.211 2.33333 272.912 6.58C276.612 10.8267 278.463 17.045 278.463 25.235ZM270.455 25.235C270.455 18.9257 269.302 14.3757 266.997 11.585C264.752 8.79433 261.567 7.399 257.442 7.399C253.377 7.399 250.192 8.79433 247.887 11.585C245.642 14.3757 244.52 18.9257 244.52 25.235V38.794C244.52 45.0427 245.642 49.623 247.887 52.535C250.192 55.3863 253.377 56.812 257.442 56.812C261.567 56.812 264.752 55.3863 266.997 52.535C269.302 49.623 270.455 45.0427 270.455 38.794V25.235ZM329.175 48.167H322.35V63H314.888V48.167H288.316V42.07C292.988 34.972 297.204 28.056 300.965 21.322C304.787 14.588 307.942 7.854 310.429 1.12H318.801C316.253 7.73266 313.159 14.315 309.519 20.867C305.94 27.419 301.815 34.1833 297.143 41.16H314.888V29.876H322.35V41.16H329.175V48.167Z" fill="#AB8A62"/>
</svg>
